<svg width="100" height="70" viewBox="0 0 100 70" fill="none" xmlns="http://www.w3.org/2000/svg">
<path d="M43.113 17.113C44.5971 15.629 47.0027 15.629 48.4868 17.113L61 29.626L73.5132 17.113C74.9973 15.6291 77.4029 15.6291 78.887 17.113C80.371 18.597 80.371 21.003 78.887 22.487L66.3743 34.9997L78.887 47.5128C80.371 48.9968 80.371 51.403 78.887 52.887C77.4029 54.371 74.9973 54.371 73.5132 52.887L61 40.3739L48.4868 52.887C47.0027 54.371 44.5971 54.371 43.113 52.887C41.629 51.403 41.629 48.9968 43.113 47.5128L55.6257 34.9997L43.113 22.487C41.629 21.003 41.629 18.5969 43.113 17.113Z" fill="black"/>
<path fill-rule="evenodd" clip-rule="evenodd" d="M33.9452 0C28.2696 0 22.9084 2.62444 19.4031 7.11878L1.84243 29.634C-0.614143 32.784 -0.614143 37.2163 1.84243 40.3658L19.4031 62.8809C22.9085 67.3753 28.2696 70 33.9452 70H86.4406C93.9293 70 100 63.8872 100 56.3476V13.6524C100 6.11242 93.9293 0 86.4406 0H33.9452ZM25.2199 11.7181C27.3231 9.02148 30.5399 7.44678 33.9452 7.44678H86.4406C89.8447 7.44678 92.604 10.2252 92.604 13.6524V56.3476C92.604 59.7746 89.8447 62.5532 86.4406 62.5532H33.9452C30.5399 62.5532 27.3231 60.9785 25.2199 58.2817L7.65922 35.7666C7.3083 35.3164 7.3083 34.6834 7.65922 34.2331L25.2199 11.7181Z" fill="black"/>
</svg>
