<svg width="100" height="100" viewBox="0 0 100 100" fill="none" xmlns="http://www.w3.org/2000/svg">
<path d="M40.6177 35.5839C42.8708 33.2886 42.8708 29.567 40.6177 27.2717C38.3646 24.9764 34.7123 24.9764 32.459 27.2717L1.68977 58.6193C0.56323 59.7666 0 61.2713 0 62.7752C0 63.5722 0.155693 64.3324 0.43777 65.0252C0.719308 65.7179 1.13661 66.3676 1.68977 66.9311L32.459 98.2784C34.7123 100.574 38.3646 100.574 40.6177 98.2784C42.8708 95.983 42.8708 92.2621 40.6177 89.9667L19.6974 68.6528H94.2308C97.4169 68.6528 100 66.0212 100 62.7752C100 59.5292 100 61.9502 100 56.8976V5.77586C100 2.58594 97.4141 0 94.2241 0V0C91.0342 0 88.4483 2.58594 88.4483 5.77586V54.8976C88.4483 56.0021 87.5528 56.8976 86.4483 56.8976H19.6974L40.6177 35.5839Z" fill="black"/>
</svg>
